<?xml version="1.0" encoding="utf-8"?>
<!-- Generator: Adobe Illustrator 24.2.0, SVG Export Plug-In . SVG Version: 6.00 Build 0)  -->
<svg version="1.1" id="Layer_1" xmlns="http://www.w3.org/2000/svg" xmlns:xlink="http://www.w3.org/1999/xlink" x="0px" y="0px"
	 viewBox="0 0 130 90" style="enable-background:new 0 0 130 90;" xml:space="preserve">
<style type="text/css">
	.st0{fill-rule:evenodd;clip-rule:evenodd;fill:#FF9900;}
</style>
<g id="Layer_2_1_">
	<g id="AWS">
		<path class="st0" d="M42.6,67.2V55.5l7.9,2.7V70L42.6,67.2z M59.9,67.2V55.5l-7.9,2.7V70L59.9,67.2z M51.4,52.5l7.4,2.5l-7.4,2.4
			l-8-2.7L51.4,52.5z M33.1,51V39.3l7.9,2.7v11.8L33.1,51z M50.4,51V39.3l-7.9,2.7v11.8L50.4,51z M42,36.3l7.4,2.5L42,41.2l-8-2.7
			L42,36.3z M51.6,51V39.3l7.9,2.7v11.8L51.6,51z M68.9,51V39.3L61,42.1v11.8L68.9,51z M60.5,36.3l7.4,2.5l-7.4,2.5l-8-2.7
			L60.5,36.3z M61.1,34.7V23.1l7.9,2.7v11.8L61.1,34.7z M78.4,34.7V23.1l-7.9,2.7v11.8L78.4,34.7z M69.9,20l7.4,2.5l-7.4,2.5l-8-2.6
			L69.9,20z M79.6,34.7V23.1l7.9,2.7v11.8L79.6,34.7z M96.9,34.7V23.1l-7.9,2.7v11.8L96.9,34.7z M88.4,20l7.4,2.5l-7.4,2.5l-8-2.6
			L88.4,20z"/>
	</g>
</g>
</svg>
