<?xml version="1.0" encoding="utf-8"?>
<!-- Generator: Adobe Illustrator 24.2.0, SVG Export Plug-In . SVG Version: 6.00 Build 0)  -->
<svg version="1.1" id="React" xmlns="http://www.w3.org/2000/svg" xmlns:xlink="http://www.w3.org/1999/xlink" x="0px" y="0px"
	 viewBox="0 0 130 90" style="enable-background:new 0 0 130 90;" xml:space="preserve">
<style type="text/css">
	.st0{fill:#FFA000;}
	.st1{fill:#F57F17;}
	.st2{fill:#FFCA28;}
</style>
<path class="st0" d="M70.7,38.1l-5,4.7L61,33.3l2.4-5.4c0.6-1.1,1.6-1.1,2.2,0L70.7,38.1z"/>
<path class="st1" d="M61,33.3l4.6,9.4L47,60.1L61,33.3z"/>
<path class="st2" d="M76.1,30.9c0.9-0.9,1.8-0.6,2.1,0.7L83,59.9l-16.1,9.7c-0.6,0.3-2.1,0.4-2.1,0.4s-1.4-0.2-1.9-0.5l-16-9.4
	L76.1,30.9z"/>
<path class="st0" d="M61,33.3L47,60.1L53.2,21c0.2-1.2,0.9-1.3,1.5-0.3L61,33.3z"/>
</svg>
