<?xml version="1.0" encoding="utf-8"?>
<!-- Generator: Adobe Illustrator 24.2.0, SVG Export Plug-In . SVG Version: 6.00 Build 0)  -->
<svg version="1.1" id="Layer_1" xmlns="http://www.w3.org/2000/svg" xmlns:xlink="http://www.w3.org/1999/xlink" x="0px" y="0px"
	 viewBox="0 0 130 90" style="enable-background:new 0 0 130 90;" xml:space="preserve">
<style type="text/css">
	.st0{fill:#8BC400;}
	.st1{fill:#66695F;}
	.st2{fill:#FEFEFD;}
</style>
<g>
	<path class="st0" d="M64.4,20c0.4,0,0.7,0,1.1,0c0.3,0.1,0.6,0.2,0.9,0.3c1,0.6,1.9,1.1,2.9,1.7c5.5,3.2,11,6.4,16.5,9.5
		c0.9,0.5,1.3,1.3,1.3,2.2c0,7.5,0,15,0,22.4c0,1-0.5,1.7-1.3,2.2c-1.9,1.2-3.9,2.3-5.8,3.4c-3.3,1.9-6.6,3.8-9.9,5.7
		c-1.5,0.8-2.9,1.9-4.5,2.5c-0.3,0-0.6,0-0.9,0c-0.3-0.1-0.6-0.1-0.8-0.3c-1.3-0.8-2.7-1.6-4-2.3c-3.8-2.2-7.5-4.4-11.3-6.5
		c-1.4-0.8-2.9-1.6-4.3-2.5c-0.8-0.5-1.1-1.2-1.1-2.1c0-7.5,0-14.9,0-22.4c0-1.1,0.5-1.8,1.3-2.3c1.6-1,3.3-1.9,4.9-2.9
		c4.2-2.4,8.4-4.9,12.6-7.3C62.7,20.9,63.5,20.3,64.4,20C64.4,20,64.4,20,64.4,20z M74.2,43.3c0-1.6,0-3.3,0-4.9
		c0-0.3-0.1-0.5-0.4-0.6c-0.6-0.3-1.2-0.7-1.8-1c-0.4-0.2-0.5-0.1-0.5,0.3c0,1.6,0,3.2,0,4.8c0,0.1,0,0.2,0,0.3
		c0,0.2-0.1,0.2-0.3,0.2c-0.2-0.1-0.5-0.3-0.7-0.4c-0.2-0.1-0.4-0.1-0.7,0c-1.1,0.6-2.2,1.3-3.3,1.9c-0.2,0.1-0.3,0.3-0.3,0.5
		c0,1.3,0,2.5,0,3.8c0,0.3,0.1,0.4,0.3,0.6c1.1,0.6,2.2,1.3,3.3,1.9c0.2,0.1,0.5,0.1,0.7,0c1-0.6,2.1-1.2,3.2-1.8
		c0.3-0.2,0.4-0.4,0.4-0.7C74.1,46.5,74.2,44.9,74.2,43.3z M55.9,46.2c0,0.6,0,1.3,0,1.9c0,0.2,0.1,0.4,0.3,0.5
		c1.1,0.6,2.2,1.3,3.4,1.9c0.2,0.1,0.4,0.1,0.6,0c1.1-0.6,2.2-1.3,3.4-1.9c0.2-0.1,0.3-0.2,0.3-0.5c0-1.3,0-2.6,0-3.9
		c0-0.2-0.1-0.3-0.3-0.4c-1.1-0.6-2.2-1.3-3.3-1.9c-0.2-0.1-0.4-0.1-0.6,0c-1.1,0.6-2.2,1.3-3.3,1.9c-0.2,0.1-0.3,0.3-0.3,0.6
		C55.9,44.9,55.9,45.5,55.9,46.2z M76.8,46.2c0,0.6,0,1.3,0,1.9c0,0.2,0.1,0.4,0.3,0.5c1.1,0.6,2.2,1.3,3.3,1.9
		c0.2,0.1,0.4,0.1,0.6,0c0.6-0.4,1.3-0.7,1.9-1.1c0.3-0.2,0.3-0.3,0-0.5c-1.1-0.6-2.2-1.2-3.2-1.9c-0.2-0.1-0.2-0.2-0.2-0.4
		c0-0.3,0-0.7,0-1c0-0.2,0-0.3,0.2-0.4c0.3-0.2,0.6-0.3,0.9-0.5c0.1-0.1,0.3-0.1,0.4,0c0.3,0.2,0.6,0.4,0.9,0.5
		c0.1,0.1,0.2,0.2,0.2,0.3c0,0.3,0,0.5,0,0.8c0,0.3,0.2,0.3,0.4,0.2c0.7-0.4,1.3-0.8,2-1.2c0.2-0.1,0.2-0.2,0.2-0.4
		c0-0.3,0-0.5,0-0.8c0-0.3-0.1-0.4-0.3-0.6c-1.1-0.6-2.2-1.2-3.2-1.9c-0.2-0.1-0.4-0.1-0.6,0c-1.1,0.6-2.2,1.3-3.3,1.9
		c-0.2,0.1-0.3,0.3-0.3,0.5C76.8,44.9,76.8,45.6,76.8,46.2z M53.2,46.8c0-0.9,0-1.7,0-2.6c0-0.2-0.1-0.4-0.2-0.5
		c-1.1-0.6-2.3-1.3-3.4-2c-0.2-0.1-0.4-0.1-0.6,0c-1.1,0.6-2.2,1.3-3.3,1.9c-0.2,0.1-0.3,0.3-0.3,0.6c0,1.7,0,3.4,0,5.1
		c0,0.4,0.1,0.4,0.4,0.3c0.6-0.3,1.2-0.7,1.8-1.1c0.2-0.1,0.3-0.3,0.3-0.5c0-0.8,0-1.5,0-2.3c0-0.2,0.1-0.4,0.3-0.6
		c0.3-0.2,0.5-0.3,0.8-0.5c0.2-0.1,0.3-0.1,0.5,0c0.2,0.1,0.5,0.3,0.7,0.4c0.2,0.1,0.3,0.3,0.3,0.6c0,0.7,0,1.5,0,2.2
		c0,0.2,0.1,0.5,0.3,0.6c0.6,0.4,1.3,0.7,1.9,1.1c0.3,0.2,0.4,0.1,0.4-0.2C53.2,48.5,53.2,47.7,53.2,46.8z M79.9,46.2
		c0,0.1-0.1,0.3,0.1,0.5c0.2,0.1,0.4,0.4,0.7,0.4c0.3,0,0.5-0.2,0.7-0.4c0.1-0.1,0.1-0.3,0.1-0.4c0-0.2,0.1-0.4-0.1-0.5
		c-0.2-0.2-0.4-0.4-0.7-0.4c-0.3,0-0.5,0.2-0.7,0.4C79.8,45.8,79.9,46,79.9,46.2z"/>
	<path class="st1" d="M74.2,43.3c0,1.6,0,3.2,0,4.8c0,0.3-0.1,0.6-0.4,0.7c-1.1,0.6-2.1,1.2-3.2,1.8c-0.2,0.1-0.5,0.1-0.7,0
		c-1.1-0.6-2.2-1.3-3.3-1.9c-0.2-0.1-0.3-0.3-0.3-0.6c0-1.3,0-2.5,0-3.8c0-0.2,0.1-0.4,0.3-0.5c1.1-0.6,2.2-1.3,3.3-1.9
		c0.2-0.1,0.4-0.1,0.7,0c0.2,0.1,0.5,0.3,0.7,0.4c0.2,0.1,0.3,0,0.3-0.2c0-0.1,0-0.2,0-0.3c0-1.6,0-3.2,0-4.8c0-0.4,0.1-0.5,0.5-0.3
		c0.6,0.3,1.2,0.7,1.8,1c0.2,0.1,0.4,0.3,0.4,0.6C74.2,40,74.2,41.6,74.2,43.3z M71.5,46.3c0-1,0.1-0.7-0.6-1.2
		c-0.7-0.4-0.7-0.4-1.3,0c-0.8,0.5-0.6,0.2-0.6,1.1c0,0.6,0.2,0.9,0.7,1.2c0.5,0.3,0.8,0.3,1.3,0C71.3,47.1,71.7,46.8,71.5,46.3z"/>
	<path class="st2" d="M63.7,44.2c0-0.2-0.1-0.3-0.3-0.4c-1.1-0.6-2.2-1.3-3.3-1.9c-0.2-0.1-0.4-0.1-0.6,0c-1.1,0.6-2.2,1.3-3.3,1.9
		c-0.2,0.1-0.3,0.3-0.3,0.6c0,0.6,0,1.3,0,1.9c0,0.6,0,1.3,0,1.9c0,0.2,0.1,0.4,0.3,0.5c1.1,0.6,2.2,1.3,3.4,1.9
		c0.2,0.1,0.4,0.1,0.6,0c1.1-0.6,2.2-1.3,3.4-1.9c0.2-0.1,0.3-0.2,0.3-0.5C63.7,46.8,63.7,45.5,63.7,44.2z M59.8,47.6
		c-0.8,0-1.4-0.6-1.4-1.4c0-0.8,0.6-1.4,1.4-1.4s1.4,0.6,1.4,1.4C61.1,47,60.5,47.6,59.8,47.6z"/>
	<path class="st1" d="M76.8,46.2c0-0.6,0-1.3,0-1.9c0-0.2,0.1-0.4,0.3-0.5c1.1-0.6,2.2-1.3,3.3-1.9c0.2-0.1,0.4-0.1,0.6,0
		c1.1,0.6,2.2,1.2,3.2,1.9c0.2,0.1,0.3,0.3,0.3,0.6c0,0.3,0,0.5,0,0.8c0,0.2-0.1,0.3-0.2,0.4c-0.7,0.4-1.3,0.8-2,1.2
		c-0.2,0.1-0.4,0-0.4-0.2c0-0.3,0-0.5,0-0.8c0-0.2-0.1-0.3-0.2-0.3c-0.3-0.2-0.6-0.3-0.9-0.5c-0.1-0.1-0.3-0.1-0.4,0
		c-0.3,0.2-0.6,0.4-0.9,0.5c-0.1,0.1-0.2,0.2-0.2,0.4c0,0.3,0,0.7,0,1c0,0.2,0.1,0.3,0.2,0.4c1.1,0.6,2.2,1.2,3.2,1.9
		c0.3,0.2,0.3,0.3,0,0.5c-0.6,0.4-1.3,0.7-1.9,1.1c-0.2,0.1-0.4,0.1-0.6,0c-1.1-0.6-2.2-1.3-3.3-1.9c-0.2-0.1-0.3-0.3-0.3-0.5
		C76.8,47.5,76.8,46.8,76.8,46.2z"/>
	<path class="st1" d="M53.2,46.8c0,0.9,0,1.7,0,2.6c0,0.3-0.1,0.4-0.4,0.2c-0.6-0.4-1.3-0.7-1.9-1.1c-0.2-0.1-0.3-0.3-0.3-0.6
		c0-0.7,0-1.5,0-2.2c0-0.3-0.1-0.5-0.3-0.6c-0.2-0.1-0.5-0.3-0.7-0.4c-0.2-0.1-0.3-0.1-0.5,0c-0.3,0.2-0.5,0.3-0.8,0.5
		c-0.2,0.1-0.3,0.3-0.3,0.6c0,0.8,0,1.5,0,2.3c0,0.3-0.1,0.4-0.3,0.5c-0.6,0.3-1.2,0.7-1.8,1.1c-0.3,0.2-0.4,0.1-0.4-0.3
		c0-1.7,0-3.4,0-5.1c0-0.3,0.1-0.4,0.3-0.6c1.1-0.6,2.2-1.3,3.3-1.9c0.2-0.1,0.4-0.1,0.6,0c1.1,0.7,2.3,1.3,3.4,2
		c0.2,0.1,0.2,0.3,0.2,0.5C53.2,45.1,53.2,45.9,53.2,46.8z"/>
	<path class="st1" d="M79.9,46.2c0-0.2-0.1-0.4,0.1-0.5c0.2-0.1,0.4-0.4,0.7-0.4c0.3,0,0.5,0.2,0.7,0.4c0.2,0.1,0.1,0.3,0.1,0.5
		c0,0.1,0.1,0.3-0.1,0.4c-0.2,0.2-0.4,0.4-0.7,0.4c-0.3,0-0.5-0.2-0.7-0.4C79.8,46.5,79.9,46.3,79.9,46.2z"/>
	<path class="st0" d="M71.5,46.3c0.2,0.5-0.2,0.8-0.6,1c-0.5,0.3-0.8,0.3-1.3,0c-0.5-0.3-0.7-0.6-0.7-1.2c0.1-0.9-0.1-0.6,0.6-1.1
		c0.7-0.4,0.7-0.4,1.3,0C71.7,45.6,71.5,45.3,71.5,46.3z"/>
</g>
<circle class="st0" cx="59.8" cy="46.3" r="1.4"/>
</svg>
