<?xml version="1.0" encoding="utf-8"?>
<!-- Generator: Adobe Illustrator 24.2.0, SVG Export Plug-In . SVG Version: 6.00 Build 0)  -->
<svg version="1.1" id="React" xmlns="http://www.w3.org/2000/svg" xmlns:xlink="http://www.w3.org/1999/xlink" x="0px" y="0px"
	 viewBox="0 0 130 90" style="enable-background:new 0 0 130 90;" xml:space="preserve">
<style type="text/css">
	.st0{fill-rule:evenodd;clip-rule:evenodd;fill:#00D8FF;}
	.st1{fill:#00D8FF;}
</style>
<g transform="matrix(.06928 0 0 .06928 7.367398 13.505331)">
	<g>
		<circle class="st0" cx="831.9" cy="453.9" r="64.6"/>
	</g>
	<g>
		<g>
			<path class="st1" d="M831.9,600.9c-90.7,0-170-10.7-229.3-31C521.5,542.2,471,497.7,471,453.9c0-42.2,46.7-83.7,124.8-111
				c64.4-22.4,148.2-34.8,236-34.8h0c86.2,0,168.9,12.1,232.9,34.2c78.9,27.2,128,69.9,128,111.6c0,43.9-52.2,88.5-136.2,116.3
				C996.7,590,916.9,600.9,831.9,600.9z M831.9,336.7c-83.5,0-166.1,12.1-226.6,33.2c-73,25.4-105.6,60.5-105.6,83.9
				c0,24.4,35.1,62.6,112.2,89c56.3,19.3,132.4,29.5,220,29.5c82.1,0,158.6-10.4,215.6-29.3c80.1-26.5,116.6-64.8,116.6-89.1
				c0-23.5-33.6-58.7-108.6-84.5C994.4,348.3,915,336.7,831.9,336.7z"/>
		</g>
		<g>
			<path class="st1" d="M685.3,775.2c-12.9,0-24.4-2.8-34.3-8.4c-36.6-21.1-49.2-82.2-33.8-163.6c12.7-67,43.9-145.7,87.7-221.8l0,0
				c43.1-74.6,94.9-140.2,145.9-184.7c62.9-54.8,124.5-75.9,160.6-55.1c38.1,21.9,50.6,89.4,32.7,176.1
				c-12.7,61.7-43.1,136.2-85.6,209.9c-45.3,78.5-94.2,141.9-141.4,183.1C769.5,752.6,722.1,775.2,685.3,775.2z M978.9,162.2
				c-24.6,0-63.2,16.1-109.1,56.1c-48.7,42.4-98.4,105.4-139.9,177.4l0,0c-41.7,72.3-72.5,149.9-84.4,212.9
				c-14.4,75.9-0.4,121.7,19.9,133.4c21.1,12.2,71.8,0.9,133.1-52.8c44.8-39.2,91.7-100,135.4-175.8c41-71.2,70.3-142.7,82.4-201.4
				c17-82.7,2.1-133.4-19-145.5C992.6,163.7,986.4,162.2,978.9,162.2z"/>
		</g>
		<g>
			<path class="st1" d="M978.6,775.5c-34.7,0-79-21.1-125.1-60.8c-51.7-44.5-104.4-110.8-148.4-186.8
				c-43.2-74.5-74.1-152.2-87.1-218.7c-16-81.9-3.6-145.8,32.5-166.6c38-22,102.8,0.8,168.9,59.6c47.1,41.8,96.5,105.4,139.1,179
				c45.4,78.5,75.9,152.5,88,213.9c16.7,84.2,3.4,150.1-34.5,172.1C1002.4,772.7,991.1,775.5,978.6,775.5z M683.8,163.1
				c-7.7,0-14.1,1.5-18.9,4.3c-20.3,11.7-33.9,58.5-18.7,136.4c12.4,63.4,42.2,138,83.8,209.8l0,0c41.8,72.2,93.7,137.6,142.3,179.5
				c58.6,50.4,105.2,61.1,125.5,49.4c21.1-12.2,36.6-61.8,20.8-141.7c-11.6-58.4-40.9-129.3-84.7-205.1
				c-41.1-71-88.5-132.1-133.3-171.9C751.7,180.3,710,163.1,683.8,163.1z"/>
		</g>
	</g>
</g>
</svg>
