<?xml version="1.0" encoding="utf-8"?>
<!-- Generator: Adobe Illustrator 24.2.0, SVG Export Plug-In . SVG Version: 6.00 Build 0)  -->
<svg version="1.1" id="Layer_1" xmlns="http://www.w3.org/2000/svg" xmlns:xlink="http://www.w3.org/1999/xlink" x="0px" y="0px"
	 viewBox="0 0 130 90" style="enable-background:new 0 0 130 90;" xml:space="preserve">
<style type="text/css">
	.st0{fill:#E24329;}
	.st1{fill:#FC6D26;}
	.st2{fill:#FCA326;}
</style>
<g id="Layer_2_1_">
	<g id="Layer_1-2">
		<g id="CI-CD_tech">
			<polygon class="st0" points="65,70 65,70 75,39.3 55,39.3 			"/>
			<polygon class="st1" points="65,70 55,39.3 41,39.3 			"/>
			<path class="st2" d="M41,39.3L41,39.3l-3,9.3c-0.3,0.8,0,1.8,0.8,2.3L65,70L41,39.3z"/>
			<path class="st0" d="M41,39.3h14l-6-18.5c-0.1-0.5-0.7-0.9-1.2-0.7c0,0,0,0-0.1,0c-0.3,0.1-0.6,0.4-0.7,0.7L41,39.3z"/>
			<polygon class="st1" points="65,70 75,39.3 89,39.3 			"/>
			<path class="st2" d="M89,39.3L89,39.3l3,9.3c0.3,0.8,0,1.8-0.7,2.3L65,70L89,39.3z"/>
			<path class="st0" d="M89,39.3H75l6-18.5c0.2-0.6,0.7-0.9,1.3-0.7c0,0,0,0,0,0c0.3,0.1,0.6,0.4,0.7,0.7L89,39.3z"/>
		</g>
	</g>
</g>
</svg>
