<svg version="1.1" id="React" xmlns="http://www.w3.org/2000/svg" xmlns:xlink="http://www.w3.org/1999/xlink" x="0px" y="0px"
	 viewBox="0 0 130 90" style="enable-background:new 0 0 130 90;" xml:space="preserve">
<path fill="white" d="M83.1,33.9h19.2v3.5h-7.6v18.6h-3.8V37.5h-7.8V33.9z"/>
<path fill="white" d="M51.6,33.9v3.5H36.3v5.7h12.4v3.5H36.3v5.8h15.4v3.5H32.5V37.5h0v-3.5H51.6z"/>
<path fill="white" d="M61.2,33.9h-5L74,56.1h5L70.1,45L79,33.9l-5,0l-6.4,8L61.2,33.9z"/>
<path fill="white" d="M66.3,49.7l-2.5-3.1l-7.6,9.4h5L66.3,49.7z"/>
<path fill="white" d="M32.6,56.1L14.8,33.9H10v22.1h3.8V38.6l14,17.4H32.6z"/>
<path fill="white" d="M103.1,55.9c-0.3,0-0.5-0.1-0.7-0.3c-0.2-0.2-0.3-0.4-0.3-0.7c0-0.3,0.1-0.5,0.3-0.7
	c0.2-0.2,0.4-0.3,0.7-0.3c0.3,0,0.5,0.1,0.7,0.3c0.2,0.2,0.3,0.4,0.3,0.7c0,0.2,0,0.4-0.1,0.5c-0.1,0.2-0.2,0.3-0.4,0.4
	C103.5,55.9,103.3,55.9,103.1,55.9z"/>
<path fill="white" d="M109.6,46.6h1.7v6.5c0,0.6-0.1,1.1-0.4,1.5c-0.3,0.4-0.6,0.8-1.1,1c-0.5,0.2-1,0.3-1.6,0.3
	c-0.5,0-1-0.1-1.5-0.3c-0.4-0.2-0.8-0.5-1-0.9c-0.3-0.4-0.4-0.9-0.4-1.4h1.7c0,0.2,0.1,0.5,0.2,0.6c0.1,0.2,0.3,0.3,0.4,0.4
	c0.2,0.1,0.4,0.1,0.7,0.1c0.3,0,0.5-0.1,0.7-0.2c0.2-0.1,0.3-0.3,0.4-0.5c0.1-0.2,0.1-0.5,0.2-0.8V46.6z"/>
<path fill="white" d="M118.2,49.1c0-0.4-0.2-0.7-0.5-0.9c-0.3-0.2-0.7-0.3-1.2-0.3c-0.4,0-0.7,0.1-0.9,0.2c-0.3,0.1-0.4,0.2-0.6,0.4
	c-0.1,0.2-0.2,0.4-0.2,0.6c0,0.2,0,0.4,0.1,0.5c0.1,0.1,0.2,0.3,0.4,0.4c0.2,0.1,0.3,0.2,0.5,0.2c0.2,0.1,0.4,0.1,0.6,0.2l0.9,0.2
	c0.4,0.1,0.7,0.2,1,0.3c0.3,0.1,0.6,0.3,0.9,0.5c0.3,0.2,0.5,0.5,0.6,0.8c0.2,0.3,0.2,0.6,0.2,1c0,0.5-0.1,1-0.4,1.4
	c-0.3,0.4-0.7,0.7-1.2,1c-0.5,0.2-1.2,0.3-1.9,0.3c-0.7,0-1.4-0.1-1.9-0.3c-0.5-0.2-1-0.5-1.3-1c-0.3-0.4-0.5-0.9-0.5-1.6h1.7
	c0,0.3,0.1,0.6,0.3,0.8c0.2,0.2,0.4,0.4,0.7,0.5c0.3,0.1,0.6,0.2,1,0.2c0.4,0,0.7-0.1,1-0.2c0.3-0.1,0.5-0.3,0.7-0.5
	c0.2-0.2,0.2-0.4,0.2-0.7c0-0.2-0.1-0.4-0.2-0.6c-0.1-0.2-0.3-0.3-0.6-0.4c-0.3-0.1-0.5-0.2-0.9-0.3l-1.1-0.3
	c-0.8-0.2-1.4-0.5-1.8-0.9c-0.4-0.4-0.7-0.9-0.7-1.6c0-0.5,0.1-1,0.5-1.4c0.3-0.4,0.7-0.7,1.2-1c0.5-0.2,1.1-0.3,1.8-0.3
	c0.7,0,1.2,0.1,1.7,0.3c0.5,0.2,0.9,0.5,1.2,0.9c0.3,0.4,0.4,0.9,0.4,1.4H118.2z"/>
</svg>
